<svg xmlns="http://www.w3.org/2000/svg" version="1.1" xmlns:xlink="http://www.w3.org/1999/xlink" xmlns:svgjs="http://svgjs.dev/svgjs" viewBox="0 0 18.117190362872915 3.946769070976088"><g transform="matrix(0.6821908592729375,0,0,0.6821908592729375,5.242036024323197,1.630583628703393)"><g transform="matrix(1,0,0,1,0,0)" clip-path="url(#SvgjsClipPath42931)"><g clip-path="url(#SvgjsClipPath429296025932a-99df-4e77-92b5-6ac7ecfd5c18)"><path d=" M -0.5258517672873952 0.512528440663321 C -0.5117840092157704 0.5412179203368521 -0.48794899942602266 0.5740475484998564 -0.45908458390082396 0.6189963437200734 C -0.4090140556901085 0.6969885775886668 -0.3818528350540644 0.7131482768864861 -0.41371545670368226 0.7405038706910498 C -0.4194348871873794 0.7454215118546021 -0.4741557934549321 0.7765868197621546 -0.49886548250301965 0.78685215272461 C -0.5314497145407668 0.8003951032412309 -0.5385686318378071 0.7996905005053465 -0.5394408814315397 0.8567997670810874 C -0.5373756665160165 0.8881788854740116 -0.5163590676698071 0.9221917603003804 -0.5142987120834963 0.9535611600348792 C -0.5113588179096333 0.998172231874793 -0.5712500504598148 1.0030291314231832 -0.5726398186147317 1.0241672134997175 C -0.5747220411825007 1.0559593748757468 -0.4905341625673372 1.0487068260253498 -0.5429979104154534 1.0931186653675304 C -0.56742332870458 1.1137951111688305 -0.5685919973803057 1.1663268896259285 -0.5688058078656775 1.2226975381612937 C -0.5692917407869773 1.349217463215476 -0.6689735905977796 1.3077892520100747 -0.7869143699264167 1.309818021956501 C -0.8253370860135794 1.3104764610648616 -0.8611503423133633 1.3127895017702478 -0.8945290746774361 1.3165554819103202 C -1.0851095367465502 1.33805072468401 -1.0935186059496407 1.5272875822257308 -1.1155799605766445 1.5488314182915508 C -1.1080893045948106 1.5229773572138028 -1.7138314173054896 1.5565504627463953 -1.7138314173054896 1.5565504627463953 C -1.6870759506587314 1.1340585139870258 -1.802176452062372 1.0009857834891178 -1.8937432220874701 0.8989908929729293 C -1.913287675529614 0.8774766133822911 -1.9310167894852621 0.8543806554331017 -1.9467487851428356 0.82993982485625 C -1.95401510209267 0.8171792263429214 -1.9609283077863593 0.8044380651464442 -1.9674884022239048 0.7917163412668198 L -1.7791505205865878 0.7917163412668198 L -1.683832348409056 0.8870345134443516 C -1.6839214361112944 0.8893022004104165 -1.6839667898506163 0.8915804159231095 -1.68396840962702 0.8938691599824309 C -1.6839549953933828 0.9862532540400821 -1.6090676654339517 1.0611427593442064 -1.5166835718049707 1.0611588571336537 C -1.4286228437416677 1.0611373813870815 -1.3556509893371953 0.9928618406100314 -1.3497801913262222 0.904997023880193 L -1.2763557269178458 0.904997023880193 C -1.2687216097483514 0.9410108574848017 -1.2369293539746027 0.9667717133216138 -1.2001152812305382 0.9667736761650165 C -1.1794506541438925 0.9667736761750645 -1.1596324318979756 0.9585645187367438 -1.1450205617824327 0.9439521929685217 C -1.1304086916668903 0.9293398672003002 -1.1222001522291072 0.9095213889758234 -1.122200796629353 0.8888567618992254 C -1.1222021383236485 0.8458259429781421 -1.157084462372285 0.8109425311684024 -1.2001152812305733 0.8109398476334337 C -1.2369311606512383 0.810941367124518 -1.268724440280352 0.836705078983057 -1.2763557269178463 0.8727213592474705 L -1.3507277605227561 0.8727213592474705 C -1.3613962635390864 0.7891950210960723 -1.4324689504503516 0.7266063109986807 -1.5166738531465846 0.726584322160422 C -1.5169313975948735 0.726584322160422 -1.517186512378556 0.726584322160422 -1.5174343381684192 0.726584322160422 L -1.6834168757613455 0.5606042142321022 L -2.0516957181559206 0.5606042142321022 C -2.0743960745744334 0.4553608621370251 -2.0751808562423317 0.353652672044403 -2.05809302506483 0.2584341161157375 L -1.7207389537817637 0.2584341161157375 L -1.6254183519396255 0.3537522882932693 C -1.6255155385238855 0.3560313136941645 -1.625563321927813 0.35831033909506016 -1.6255617021514088 0.3605893644959558 C -1.625546946130087 0.4529734583352867 -1.5506585285039822 0.5278618759613278 -1.4582744346647216 0.527876631982571 C -1.3725298507639172 0.5278565454254627 -1.3006736501347589 0.4630282847027867 -1.29185941677191 0.37773793728862015 L -1.2140566967426238 0.37773793728862015 C -1.2064252569747342 0.4137537668740512 -1.1746317213570492 0.43951667296254615 -1.1378162510553156 0.43951701923805087 C -1.094785825217624 0.4395156774514345 -1.0599031082407464 0.404632960474557 -1.0599017664541308 0.3616025346368653 C -1.0599017664541308 0.31857155300070517 -1.094785269419155 0.28368805003568076 -1.137816251055316 0.28368805003568076 C -1.174629585257424 0.28368976954869973 -1.2064215850952138 0.30944940484223404 -1.2140566967426234 0.34546227265589813 L -1.2916820512556353 0.34546227265589813 C -1.2995228299304453 0.2593008512102071 -1.3717569915054693 0.19332657628569172 -1.4582744346647931 0.19330695633855244 L -1.4590422086804464 0.19330695633855244 L -1.6250198869441599 0.02733413740405266 L -1.975938775725305 0.02733413740405266 C -1.9425308527638199 -0.03307284679244782 -1.9013037206010426 -0.08881108640593255 -1.8533233216937663 -0.1384394490327145 L -1.4190159139529954 -0.1384394490327145 L -1.3236953121108568 -0.04311884719057679 C -1.3237924986951168 -0.04084468111889461 -1.3238386623226404 -0.038560796388785956 -1.3238386623226404 -0.03627934132328403 C -1.323821223532231 0.05610285482411648 -1.248933591451149 0.13098831158334845 -1.1565513948360913 0.13100306683411855 C -1.0694769298075648 0.1309854682023035 -0.9969704276736069 0.0641879813850138 -0.9898278095381166 -0.0225930405948801 L -0.9086429963765845 -0.0225930405948801 C -0.9010091041818575 0.013418558964229943 -0.8692192505501686 0.039178097115924015 -0.8324074100184902 0.039181182025337935 C -0.8117432038771937 0.03918311527711993 -0.7919245818494818 0.03097614537398108 -0.7773114146076234 0.01636571203513293 C -0.7626982473657646 0.001755278696285112 -0.7544875694944175 -0.018061807440715838 -0.7544856364234844 -0.03872601358202865 C -0.7544856364234844 -0.08175699521818836 -0.7893691393885087 -0.11664049818321276 -0.8324001210246696 -0.11664049818321276 C -0.869213768204459 -0.1166378565037412 -0.9010046456017311 -0.09087546240677713 -0.908635707382764 -0.05486141623378349 L -0.9902967348071696 -0.05486141623378349 C -0.9997839187434765 -0.13951825072994184 -1.0713573356614714 -0.20353516168781116 -1.1565441058422041 -0.20355689015147538 C -1.1567870723028542 -0.20355689015147466 -1.1570543354095688 -0.20355689015147466 -1.1573070205286446 -0.20355689015147466 L -1.323282269127751 -0.3695418574090076 L -1.4276217859892104 -0.3695418574090076 C -1.2549771080452663 -0.4022378540186544 -1.0670887143601517 -0.3769134598251236 -0.8903184659143735 -0.27401473407531673 C -0.6685897035899522 -0.14495095017813164 -0.5809687088858064 0.12866329981805957 -0.598433138077316 0.31722228093456795 C -0.6048814679429622 0.3868151642584966 -0.5688058078656764 0.42493174260524036 -0.5258517672873939 0.5125235813341085 Z M -0.740658415147903 0.3380785219167489 C -0.7628783125886527 0.3380795879432632 -0.7820674874758171 0.35362748011952627 -0.7866762627949797 0.3753641549680705 L -0.8990628288331612 0.3753641549680705 C -0.903327015818497 0.36180119652027165 -0.9158988784537074 0.35257369918978787 -0.930116372168815 0.3525714712945103 C -0.9387463995023066 0.3525695377317678 -0.9470235895116332 0.3559966137782935 -0.9531263961684924 0.3620985090924128 C -0.9592292028253515 0.36820040440653257 -0.9626575149731402 0.3764770825141124 -0.9626568702436458 0.3851071100401283 C -0.9626568703722407 0.3937369398193371 -0.9592283512679953 0.4020132433554273 -0.9531256844033544 0.40811499894394077 C -0.9470230175387138 0.4142167545324539 -0.9387462020956547 0.41764403765341396 -0.9301163722907535 0.4176427487857646 C -0.9158988784537074 0.4176405208904691 -0.903327015818497 0.4084130235599853 -0.8990628288331612 0.39485006511218645 L -0.7866762627949797 0.39485006511218645 C -0.7820674874758171 0.4165867399607307 -0.7628783125886527 0.43213463213699377 -0.740658415147903 0.43213569816350805 C -0.7146880896961088 0.4321316730045237 -0.6936371157064121 0.4110774358038536 -0.693637116018343 0.3851071100401283 C -0.6936358271839445 0.37263522079571265 -0.6985891961739419 0.3606736711836446 -0.7074074701723327 0.3518540302229095 C -0.7162257441707234 0.3430343892621738 -0.7281865258534654 0.3380791662590378 -0.7406584151478668 0.33807852191674925 Z M -0.8685996939968867 0.7136536471246377 C -0.8908199208590581 0.7136537833430947 -0.910009607609295 0.7292020902527638 -0.9146175416439632 0.7509392801759593 L -1.027004107682145 0.7509392801759593 C -1.031266567155502 0.7373743988642119 -1.0438388410330723 0.728144632351948 -1.0580576510177988 0.7281417371731864 C -1.0666877042663283 0.7281410927546328 -1.0749645134872086 0.7315689163461245 -1.0810671105018634 0.7376710577050625 C -1.0871697075165185 0.7437731990640006 -1.0905981491166892 0.7520497523108212 -1.0905981490926293 0.7606798055834108 C -1.0905981490926293 0.769309858946714 -1.0871697074693838 0.7775864121839762 -1.081067110437717 0.7836885535259008 C -1.0749645134060497 0.789790694867825 -1.0666877041756133 0.7932185184362419 -1.0580576509270854 0.7932178739936286 C -1.0438388410330723 0.7932149788148739 -1.031266567155502 0.7839852123026101 -1.027004107682145 0.7704203309908622 L -0.9146175416439632 0.7704203309908622 C -0.9100111375788824 0.7921581007124197 -0.8908201706453336 0.8077064316308629 -0.8685996939968867 0.8077035343775778 C -0.8426284195380296 0.8077035345162187 -0.8215737894108555 0.786651079903627 -0.8215711058735069 0.7606798055834108 C -0.8215724476911137 0.7347075824050704 -0.8426274707835839 0.7136536470900592 -0.8685996939967362 0.7136536471246377 Z M -0.7619252694485821 0.13808796882666663 C -0.7841448345745701 0.13808621949020672 -0.8033344722335165 0.15363429435564502 -0.8079406874310522 0.17537117221338194 L -0.9203272534692339 0.17537117221338194 C -0.9245897129425904 0.16180629090163368 -0.9371619868201608 0.1525765243893702 -0.9513807968048873 0.15257362921060824 C -0.9600116920548838 0.15257298463292956 -0.9682892378171875 0.15600147524167318 -0.9743919745558633 0.16210466764649822 C -0.9804947112945392 0.16820786005132327 -0.9839225838666421 0.17648566177223302 -0.983921294879718 0.1851165569500468 C -0.9839206505166618 0.1937461892473279 -0.9804919244503953 0.20202211829783734 -0.9743893972833333 0.20812373416390206 C -0.9682868701162715 0.214225350029966 -0.960010429102194 0.21765284010683816 -0.9513807968049015 0.21765219569566396 C -0.9371619868201608 0.21764930051690246 -0.9245897129425904 0.20841953400463853 -0.9203272534692339 0.19485465269289115 L -0.8079406874310517 0.19485465269289115 C -0.8033353139328405 0.21659204581644176 -0.784145164085722 0.23214053567356419 -0.7619252694485823 0.23213785607960713 C -0.7359543880387625 0.23213919803594885 -0.7148993649259174 0.2110874382558866 -0.7148966813252027 0.18511655695004636 C -0.714898023059299 0.15914394070802085 -0.7359526532068341 0.1380893105606097 -0.7619252694487206 0.13808796882666663 Z M -0.995695449562809 0.5193679465306138 C -1.0325093493141577 0.5193713002770417 -1.0643005320060506 0.5451331207342647 -1.0719334655855102 0.5811470284800446 L -1.2581308127045019 0.5811470284800446 C -1.2651917461311324 0.5586724427059291 -1.2860212918174554 0.5433800640877671 -1.3095789607471018 0.543375462507423 C -1.339352692399411 0.543374120562528 -1.3634905347476345 0.567508699570191 -1.3634932183652977 0.5972824311317992 C -1.3634932183652977 0.6115811579333619 -1.3578129049781889 0.6252942105391845 -1.347701950498658 0.635404709344531 C -1.337590996019127 0.6455152081498776 -1.3238776874246452 0.6511949035059972 -1.309578960692353 0.6511942590853854 C -1.2860212918174552 0.6511896575050435 -1.2651917461311324 0.6358972788868815 -1.2581308127045019 0.6134226931127662 L -1.0719261765916912 0.6134226931127662 C -1.0642915605720744 0.6494355708983774 -1.0325014014069245 0.6751965619459985 -0.99568816056899 0.6752017750621966 C -0.9750233100652073 0.6752011306851251 -0.9552050940166383 0.6669914327955846 -0.9405932937437091 0.6523787212216527 C -0.9259814934707795 0.6377660096477211 -0.9177730315706389 0.61794728163558 -0.9177736759678048 0.5972824311317984 C -0.9177743203278692 0.576617159641799 -0.9259843517420681 0.55679857536807 -0.9405975888178311 0.5421867052503546 C -0.9552108258935943 0.5275748351326395 -0.9750301781030082 0.5193666577200677 -0.9956954495628365 0.5193679465306136 Z" fill="#3361e1" transform="matrix(1,0,0,1,0,0)" fill-rule="evenodd"></path></g><g clip-path="url(#SvgjsClipPath429296025932a-99df-4e77-92b5-6ac7ecfd5c18)"><path d=" M -2.387096339095361 0.04371250651645642 C -2.3791874037173018 0.04371575937390382 -2.3713061330998584 0.04277861977549302 -2.363618490002768 0.04092082188359025 L -2.21530933275751 0.1892251197996352 L -1.6920689114250846 0.1892251197996352 L -1.5514302053425415 0.32987111487599774 C -1.5546950856139834 0.3397856898765613 -1.556354416104077 0.35015835096292947 -1.5563454168414872 0.36059665348977443 C -1.5563454168414872 0.38660605075067533 -1.5460132240096032 0.41155017081446277 -1.5276218028318456 0.4299415919922208 C -1.5092303816540875 0.4483330131699784 -1.4842862615903 0.45866520600186234 -1.458276864329399 0.45866520600186234 C -1.4107336418104592 0.4586629308078862 -1.370037062711093 0.42456565859732176 -1.3617098445441276 0.3777573746054712 L -1.4002637625200411 0.3777573746054712 C -1.4073243698081046 0.40023463266485226 -1.4281566489831614 0.4155285574103118 -1.4517167698918538 0.4155313702426997 C -1.4814891595919355 0.41553002841875264 -1.5056237385464672 0.39139436168403574 -1.5056237385162297 0.3616219719537167 C -1.5056243829223273 0.34732453399567886 -1.4999451995158595 0.33361246139636136 -1.4898356120012504 0.32350241822809656 C -1.4797260244866417 0.3133923750598311 -1.4660142078644507 0.3077125736502163 -1.451716769891872 0.3077125736647338 C -1.428157965490311 0.3077147195100264 -1.4073260977350468 0.3230063748084907 -1.4002637625200416 0.34548170997274885 L -1.3613745508284305 0.34548170997274885 C -1.3688351170490498 0.2977391931105109 -1.4099549444325055 0.26254252617932716 -1.458276864329399 0.2625378196361129 C -1.4670472033390192 0.26253338718028774 -1.4757785782096633 0.2637043801788501 -1.4842378306498325 0.2660195290172245 L -1.653689929300838 0.09656500070161278 L -2.1769303506332633 0.09656500070161278 L -2.2941811052136547 -0.0206857538787788 C -2.2900202045849394 -0.03181247678298871 -2.2878944239926433 -0.04359685630335175 -2.2879052815350702 -0.05547612137922675 C -2.2879052815350693 -0.08178513309099 -2.298356994564755 -0.10701648935701685 -2.3169609584842106 -0.12561908620911816 C -2.3355649224036656 -0.14422168306122013 -2.3607970466486723 -0.15467154192929378 -2.387106058021592 -0.15466960860410395 C -2.4134142272142087 -0.15467025300155307 -2.438645103017397 -0.1442198250797767 -2.457248015873758 -0.1256173678756275 C -2.4758509287301194 -0.10701491067147828 -2.4863019746511807 -0.08178429084754146 -2.486301974643289 -0.05547612137922675 C -2.4863006860043755 -0.029167109863295182 -2.47584773705113 -0.00393626547160153 -2.4572428618534423 0.014665420136488971 C -2.4386379866557544 0.033267105744579806 -2.4134053504446964 0.04371572863840678 -2.387096339094938 0.04371250651645686 Z" fill="#3361e1" transform="matrix(1,0,0,1,0,0)" fill-rule="evenodd"></path></g><g clip-path="url(#SvgjsClipPath429296025932a-99df-4e77-92b5-6ac7ecfd5c18)"><path d=" M -2.445507905900184 0.5769898723383258 C -2.4375976742204855 0.5769941837593613 -2.429715187816708 0.5760545496185137 -2.4220276271429855 0.5741908987116398 L -2.2737208995623335 0.7225000559568981 L -1.7504731892360892 0.7225000559568981 L -1.6098320534889394 0.8631436213686539 C -1.6130983392025056 0.8730587570857804 -1.6147585021379158 0.8834323147162826 -1.6147496946524917 0.8938715896470373 C -1.6147496946524917 0.9198811845954544 -1.6044170907286737 0.9448254230945352 -1.5860250741789677 0.9632165282911593 C -1.5676330576292614 0.981607633487783 -1.5426883071514939 0.9919390013424005 -1.5166787123554033 0.9919377124945123 C -1.466824631305909 0.9919348577389917 -1.424906117106242 0.9545291172500472 -1.4192491617552185 0.904997023880193 L -1.4625530740368367 0.904997023880193 C -1.4696156781486875 0.9274732145334239 -1.4904488098454252 0.9427650755319026 -1.5140085110732564 0.9427661601882071 C -1.5283063700083865 0.9427668046277973 -1.5420188108403776 0.9370872877058432 -1.5521289238601264 0.9269771746860946 C -1.5622390368798746 0.9168670616663459 -1.5679185538018285 0.9031546208343548 -1.5679179093622393 0.8888567618992247 C -1.5679165676113196 0.8590839791408822 -1.543781293831726 0.8349487053612314 -1.51400851107332 0.834947363610242 C -1.4904474933171563 0.8349491152102881 -1.4696139501683265 0.8502432456916771 -1.4625530740368367 0.8727213592474701 L -1.4209086226814567 0.8727213592474701 C -1.4308434669514531 0.8277939416882434 -1.4706683838798533 0.7958081218841888 -1.516681142140403 0.7958006074703425 C -1.5254504902665251 0.7957966222365767 -1.5341808959678294 0.7969667776993499 -1.5426396787962307 0.7992798871868483 L -1.7120917774472362 0.6298253588712361 L -2.235327339450449 0.6298253588712361 L -2.3525829533600526 0.5125770339554512 C -2.3484179795009488 0.5014512055156077 -2.3462896749993667 0.48966652177308845 -2.346299840687649 0.47778666645500345 C -2.3463025243581703 0.4229978556928664 -2.3907190950887904 0.3785845483270791 -2.445507905900202 0.3785858902362873 C -2.500293084081433 0.3785885738767516 -2.5447038228554155 0.4230014882080252 -2.5447038227896863 0.47778666645500345 C -2.5447057560438546 0.504096322215009 -2.5342556411258808 0.5293290644265056 -2.515652588573058 0.5479334839462437 C -2.4970495360202345 0.5665379034659821 -2.4718175617312954 0.5769898724093436 -2.445507905900222 0.5769898723383253 Z" fill="#3361e1" transform="matrix(1,0,0,1,0,0)" fill-rule="evenodd"></path></g><g clip-path="url(#SvgjsClipPath429296025932a-99df-4e77-92b5-6ac7ecfd5c18)"><path d=" M -2.085366010272772 -0.35315133997357023 C -2.077456436380421 -0.35314704423879384 -2.069574660368679 -0.3540875065943291 -2.06188816118018 -0.3559527432648629 L -1.9135765742703152 -0.20764844534881793 L -1.3903385826024963 -0.20764844534881793 L -1.2496901578615272 -0.06700002060784865 C -1.2529609824885202 -0.05708585666997956 -1.2546228619723676 -0.04671182417628639 -1.254612658354293 -0.03627205232946573 C -1.254613302804735 -0.010262680924236989 -1.2442812393773526 0.014681563800232333 -1.2258896086500388 0.03307273887199513 C -1.2074979779227248 0.05146391394375749 -1.1825534772242399 0.061795359362718405 -1.1565441058425825 0.061794070518015554 C -1.1076710902621394 0.06179140199620359 -1.0662574758369063 0.0258080791196984 -1.05943041152047 -0.022585751601061133 L -1.0948427731601822 -0.022585751601061133 C -1.1019057032997153 -0.00011223331650667134 -1.122736101495152 0.01517808164145884 -1.1462933508673885 0.015180955042346844 C -1.1605914332069431 0.015182243869052425 -1.1743043797949546 0.009503422493258418 -1.1844153342736627 -0.0006061650245015038 C -1.1945262887523704 -0.010715752542261425 -1.2002069641375783 -0.024427931198905628 -1.2002076084855844 -0.03872601358202865 C -1.2002049249232014 -0.06850013815918893 -1.1760674755655038 -0.0926354119919412 -1.1462933508673983 -0.09263541187101121 C -1.1227341268176365 -0.09263153787204886 -1.101903111567888 -0.07733781884636709 -1.0948427731601822 -0.05486141623378349 L -1.0602443491636475 -0.05486141623378349 C -1.0691599829371798 -0.10100273459183423 -1.1095493212957244 -0.13433731353430228 -1.1565441058422046 -0.1343406048415533 C -1.1653120387576081 -0.13434734337048326 -1.1740412048048927 -0.13317713500316336 -1.1824977831688186 -0.13086132512504728 L -1.351957170813644 -0.30031828310526615 L -1.875197592146069 -0.30031828310526615 L -1.9924483467264607 -0.4175690376856577 C -1.988283157725354 -0.42869227661709725 -1.986154831651886 -0.44047461075002897 -1.9861652340540568 -0.452352116192287 C -1.9861645896383329 -0.478661995398698 -1.996615863042451 -0.5038944754123681 -2.015219757047263 -0.5224983694173091 C -2.0338236510520753 -0.5411022634222501 -2.0590561310656725 -0.5515535368265424 -2.0853660102724283 -0.5515528924110015 C -2.1116758894795282 -0.5515535368266339 -2.1369083694931614 -0.5411022634224284 -2.1555122634980384 -0.5224983694175521 C -2.174116157502915 -0.5038944754126752 -2.18456743090712 -0.4786619953990417 -2.184566786491488 -0.4523521161922859 C -2.1845667853369366 -0.3975650382248127 -2.1401530840592464 -0.3531513388190194 -2.0853660081822722 -0.35315133997357095 Z" fill="#3361e1" transform="matrix(1,0,0,1,0,0)" fill-rule="evenodd"></path></g></g><g><path d=" M 0.09 1.005 L 0.09 0.9809999999999999 L 0.2115 0.9209999999999999 L 0.2115 0.09899999999999987 L 0.09 0.038999999999999924 L 0.09 0.014999999999999902 L 0.546 0.014999999999999902 Q 0.714 0.014999999999999902 0.8325 0.0734999999999999 Q 0.9510000000000001 0.1319999999999999 1.01325 0.23399999999999987 Q 1.0755000000000001 0.33599999999999985 1.0755000000000001 0.46499999999999986 Q 1.0755000000000001 0.5819999999999999 1.035 0.6809999999999998 Q 0.9945 0.7799999999999999 0.9217500000000001 0.8519999999999999 Q 0.849 0.9239999999999999 0.75075 0.9644999999999999 Q 0.6525 1.005 0.5355 1.005 L 0.09 1.005 M 0.5055000000000001 0.09749999999999992 L 0.369 0.09749999999999992 L 0.369 0.9224999999999999 L 0.528 0.9224999999999999 Q 0.648 0.9224999999999999 0.7335 0.8722499999999999 Q 0.8190000000000001 0.8219999999999998 0.8655 0.7297499999999999 Q 0.912 0.6375 0.912 0.5114999999999998 Q 0.912 0.3869999999999999 0.86475 0.2932499999999999 Q 0.8175 0.1994999999999999 0.72675 0.14849999999999985 Q 0.636 0.09749999999999992 0.5055000000000001 0.09749999999999992 M 1.173021240234375 1.005 L 1.173021240234375 0.9809999999999999 L 1.267521240234375 0.9314999999999999 L 1.653021240234375 0.00749999999999984 L 1.735521240234375 0.00749999999999984 L 2.116521240234375 0.9269999999999999 L 2.217021240234375 0.9809999999999999 L 2.217021240234375 1.005 L 1.821021240234375 1.005 L 1.821021240234375 0.9809999999999999 L 1.9530212402343752 0.9284999999999999 L 1.842021240234375 0.6584999999999999 L 1.480521240234375 0.6584999999999999 L 1.3710212402343749 0.9299999999999999 L 1.497021240234375 0.9809999999999999 L 1.497021240234375 1.005 L 1.173021240234375 1.005 M 1.515021240234375 0.5759999999999998 L 1.809021240234375 0.5759999999999998 L 1.662021240234375 0.2144999999999999 L 1.515021240234375 0.5759999999999998 M 2.495984619140625 1.005 L 2.495984619140625 0.9809999999999999 L 2.647484619140625 0.9209999999999999 L 2.647484619140625 0.09749999999999992 L 2.410484619140625 0.09749999999999992 L 2.303984619140625 0.32399999999999984 L 2.279984619140625 0.32399999999999984 L 2.279984619140625 0.014999999999999902 L 3.170984619140625 0.014999999999999902 L 3.170984619140625 0.32399999999999984 L 3.1469846191406248 0.32399999999999984 L 3.0419846191406252 0.09749999999999992 L 2.803484619140625 0.09749999999999992 L 2.803484619140625 0.9209999999999999 L 2.956484619140625 0.9809999999999999 L 2.956484619140625 1.005 L 2.495984619140625 1.005 M 3.23396484375 1.005 L 3.23396484375 0.9809999999999999 L 3.32846484375 0.9314999999999999 L 3.71396484375 0.00749999999999984 L 3.79646484375 0.00749999999999984 L 4.17746484375 0.9269999999999999 L 4.27796484375 0.9809999999999999 L 4.27796484375 1.005 L 3.88196484375 1.005 L 3.88196484375 0.9809999999999999 L 4.01396484375 0.9284999999999999 L 3.90296484375 0.6584999999999999 L 3.54146484375 0.6584999999999999 L 3.43196484375 0.9299999999999999 L 3.5579648437499998 0.9809999999999999 L 3.5579648437499998 1.005 L 3.23396484375 1.005 M 3.57596484375 0.5759999999999998 L 3.86996484375 0.5759999999999998 L 3.72296484375 0.2144999999999999 L 3.57596484375 0.5759999999999998 M 5.09693701171875 1.0199999999999998 Q 5.00243701171875 1.0199999999999998 4.93568701171875 1.002 Q 4.86893701171875 0.9839999999999999 4.79843701171875 0.9494999999999999 L 4.78343701171875 0.702 L 4.80743701171875 0.702 L 4.88693701171875 0.8654999999999999 Q 4.93943701171875 0.9089999999999999 4.99043701171875 0.9284999999999999 Q 5.04143701171875 0.9479999999999998 5.09243701171875 0.9479999999999998 Q 5.17943701171875 0.9479999999999998 5.22968701171875 0.9029999999999999 Q 5.27993701171875 0.8579999999999999 5.27993701171875 0.7799999999999999 Q 5.27993701171875 0.7184999999999999 5.25218701171875 0.6817499999999999 Q 5.22443701171875 0.6449999999999999 5.16968701171875 0.6157499999999999 Q 5.11493701171875 0.5864999999999999 5.03543701171875 0.5474999999999999 Q 4.92893701171875 0.49649999999999983 4.87193701171875 0.4402499999999999 Q 4.81493701171875 0.3839999999999999 4.81493701171875 0.2819999999999999 Q 4.81493701171875 0.22799999999999987 4.84118701171875 0.17774999999999985 Q 4.86743701171875 0.12749999999999984 4.91243701171875 0.08774999999999988 Q 4.95743701171875 0.04799999999999982 5.01293701171875 0.02399999999999991 Q 5.06843701171875 -2.220446049250313e-16 5.12843701171875 -2.220446049250313e-16 Q 5.19893701171875 -2.220446049250313e-16 5.26043701171875 0.016499999999999848 Q 5.32193701171875 0.03299999999999992 5.38193701171875 0.06449999999999989 L 5.39693701171875 0.3044999999999999 L 5.37293701171875 0.3044999999999999 L 5.2949370117187495 0.1439999999999999 Q 5.24693701171875 0.10649999999999993 5.20793701171875 0.08999999999999986 Q 5.16893701171875 0.0734999999999999 5.11943701171875 0.0734999999999999 Q 5.05493701171875 0.0734999999999999 5.01218701171875 0.11699999999999988 Q 4.96943701171875 0.16049999999999986 4.96943701171875 0.22649999999999992 Q 4.96943701171875 0.29999999999999993 5.01518701171875 0.34199999999999986 Q 5.0609370117187495 0.3839999999999999 5.16293701171875 0.43199999999999983 Q 5.25293701171875 0.4754999999999999 5.31218701171875 0.5152499999999999 Q 5.37143701171875 0.5549999999999999 5.39993701171875 0.6044999999999998 Q 5.42843701171875 0.6539999999999999 5.42843701171875 0.7304999999999999 Q 5.42843701171875 0.8009999999999999 5.39843701171875 0.8549999999999999 Q 5.36843701171875 0.9089999999999999 5.31893701171875 0.9457499999999999 Q 5.26943701171875 0.9824999999999999 5.21168701171875 1.00125 Q 5.15393701171875 1.0199999999999998 5.09693701171875 1.0199999999999998 M 5.83194580078125 1.005 L 5.83194580078125 0.9809999999999999 L 5.96694580078125 0.9209999999999999 L 5.96694580078125 0.5429999999999999 L 5.63544580078125 0.09149999999999991 L 5.54094580078125 0.038999999999999924 L 5.54094580078125 0.014999999999999902 L 5.92794580078125 0.014999999999999902 L 5.92794580078125 0.038999999999999924 L 5.81844580078125 0.09299999999999986 L 5.81844580078125 0.09899999999999987 L 6.08394580078125 0.4604999999999999 L 6.32394580078125 0.10049999999999992 L 6.32394580078125 0.09449999999999992 L 6.21294580078125 0.038999999999999924 L 6.21294580078125 0.014999999999999902 L 6.53694580078125 0.014999999999999902 L 6.53694580078125 0.038999999999999924 L 6.43944580078125 0.08849999999999991 L 6.12294580078125 0.5414999999999999 L 6.12294580078125 0.9209999999999999 L 6.2579458007812505 0.9809999999999999 L 6.2579458007812505 1.005 L 5.83194580078125 1.005 M 6.668930419921875 1.005 L 6.668930419921875 0.9809999999999999 L 6.788930419921875 0.9209999999999999 L 6.820430419921875 0.09899999999999987 L 6.691430419921875 0.038999999999999924 L 6.691430419921875 0.014999999999999902 L 6.989930419921875 0.014999999999999902 L 7.325930419921875 0.7904999999999999 L 7.660430419921875 0.014999999999999902 L 7.946930419921875 0.014999999999999902 L 7.946930419921875 0.038999999999999924 L 7.819430419921875 0.09449999999999992 L 7.844930419921875 0.9209999999999999 L 7.952930419921875 0.9809999999999999 L 7.952930419921875 1.005 L 7.5824304199218755 1.005 L 7.5824304199218755 0.9809999999999999 L 7.694930419921875 0.9224999999999999 L 7.679930419921875 0.18899999999999983 L 7.325930419921875 1.0125 L 7.2539304199218755 1.0125 L 6.902930419921875 0.19799999999999984 L 6.883430419921875 0.9224999999999999 L 7.007930419921875 0.9809999999999999 L 7.007930419921875 1.005 L 6.668930419921875 1.005 M 8.126956787109375 1.005 L 8.126956787109375 0.9809999999999999 L 8.248456787109374 0.9209999999999999 L 8.248456787109374 0.09899999999999987 L 8.126956787109375 0.038999999999999924 L 8.126956787109375 0.014999999999999902 L 8.546956787109375 0.014999999999999902 Q 8.723956787109374 0.014999999999999902 8.831206787109375 0.0794999999999999 Q 8.938456787109375 0.1439999999999999 8.938456787109375 0.28349999999999986 Q 8.938456787109375 0.3659999999999999 8.882206787109375 0.42974999999999985 Q 8.825956787109375 0.4934999999999998 8.729956787109375 0.5302499999999999 Q 8.633956787109375 0.567 8.510956787109375 0.567 L 8.405956787109375 0.567 L 8.405956787109375 0.9209999999999999 L 8.543956787109375 0.9809999999999999 L 8.543956787109375 1.005 L 8.126956787109375 1.005 M 8.405956787109375 0.09749999999999992 L 8.405956787109375 0.48749999999999993 L 8.519956787109376 0.48749999999999993 Q 8.638456787109375 0.48749999999999993 8.705956787109375 0.4334999999999999 Q 8.773456787109374 0.37949999999999984 8.773456787109374 0.2954999999999999 Q 8.773456787109374 0.1904999999999999 8.705206787109375 0.1439999999999999 Q 8.636956787109375 0.09749999999999992 8.509456787109375 0.09749999999999992 L 8.405956787109375 0.09749999999999992 M 9.10043701171875 1.005 L 9.10043701171875 0.9809999999999999 L 9.22193701171875 0.9209999999999999 L 9.22193701171875 0.09899999999999987 L 9.10043701171875 0.038999999999999924 L 9.10043701171875 0.014999999999999902 L 9.49793701171875 0.014999999999999902 L 9.49793701171875 0.038999999999999924 L 9.37943701171875 0.09899999999999987 L 9.37943701171875 0.45299999999999985 L 9.86693701171875 0.45299999999999985 L 9.86693701171875 0.09899999999999987 L 9.74693701171875 0.038999999999999924 L 9.74693701171875 0.014999999999999902 L 10.14443701171875 0.014999999999999902 L 10.14443701171875 0.038999999999999924 L 10.02293701171875 0.09899999999999987 L 10.02293701171875 0.9209999999999999 L 10.14443701171875 0.9809999999999999 L 10.14443701171875 1.005 L 9.74693701171875 1.005 L 9.74693701171875 0.9809999999999999 L 9.86693701171875 0.9209999999999999 L 9.86693701171875 0.5354999999999999 L 9.37943701171875 0.5354999999999999 L 9.37943701171875 0.9209999999999999 L 9.49793701171875 0.9809999999999999 L 9.49793701171875 1.005 L 9.10043701171875 1.005 M 10.835905517578125 1.0199999999999998 Q 10.727905517578124 1.0199999999999998 10.635655517578124 0.9817499999999999 Q 10.543405517578124 0.9434999999999999 10.475155517578125 0.8752499999999999 Q 10.406905517578124 0.8069999999999999 10.369405517578125 0.714 Q 10.331905517578125 0.6209999999999999 10.331905517578125 0.5099999999999999 Q 10.331905517578125 0.3989999999999999 10.369405517578125 0.3059999999999998 Q 10.406905517578124 0.21299999999999986 10.475155517578125 0.14474999999999982 Q 10.543405517578124 0.0764999999999999 10.635655517578124 0.038249999999999895 Q 10.727905517578124 -2.220446049250313e-16 10.835905517578125 -2.220446049250313e-16 Q 10.943905517578125 -2.220446049250313e-16 11.036155517578125 0.038249999999999895 Q 11.128405517578125 0.0764999999999999 11.196655517578126 0.14474999999999982 Q 11.264905517578125 0.21299999999999986 11.303155517578125 0.3059999999999998 Q 11.341405517578124 0.3989999999999999 11.341405517578124 0.5099999999999999 Q 11.341405517578124 0.6209999999999999 11.303155517578125 0.714 Q 11.264905517578125 0.8069999999999999 11.196655517578126 0.8752499999999999 Q 11.128405517578125 0.9434999999999999 11.036155517578125 0.9817499999999999 Q 10.943905517578125 1.0199999999999998 10.835905517578125 1.0199999999999998 M 10.865905517578126 0.9449999999999998 Q 10.957405517578126 0.9449999999999998 11.026405517578125 0.8969999999999999 Q 11.095405517578126 0.8489999999999999 11.134405517578125 0.7619999999999999 Q 11.173405517578125 0.6749999999999998 11.173405517578125 0.5564999999999999 Q 11.173405517578125 0.4109999999999999 11.125405517578125 0.3022499999999999 Q 11.077405517578125 0.1934999999999999 10.994905517578125 0.13349999999999984 Q 10.912405517578126 0.0734999999999999 10.811905517578126 0.0734999999999999 Q 10.720405517578126 0.0734999999999999 10.649905517578125 0.12074999999999991 Q 10.579405517578126 0.16799999999999993 10.539655517578126 0.2549999999999999 Q 10.499905517578124 0.34199999999999986 10.499905517578124 0.4604999999999999 Q 10.499905517578124 0.6059999999999999 10.548655517578124 0.7154999999999999 Q 10.597405517578125 0.825 10.680655517578124 0.8849999999999999 Q 10.763905517578126 0.9449999999999998 10.865905517578126 0.9449999999999998 M 11.522873291015625 1.005 L 11.522873291015625 0.9809999999999999 L 11.644373291015626 0.9209999999999999 L 11.644373291015626 0.10199999999999987 L 11.524373291015625 0.038999999999999924 L 11.524373291015625 0.014999999999999902 L 11.759873291015625 0.014999999999999902 L 12.334373291015625 0.7214999999999998 L 12.334373291015625 0.09749999999999992 L 12.179873291015625 0.038999999999999924 L 12.179873291015625 0.014999999999999902 L 12.559373291015625 0.014999999999999902 L 12.559373291015625 0.038999999999999924 L 12.439373291015626 0.09749999999999992 L 12.439373291015626 1.0125 L 12.374873291015625 1.0125 L 11.749373291015624 0.24449999999999983 L 11.749373291015624 0.9224999999999999 L 11.903873291015625 0.9809999999999999 L 11.903873291015625 1.005 L 11.522873291015625 1.005 M 12.980841064453125 1.005 L 12.980841064453125 0.9809999999999999 L 13.115841064453125 0.9209999999999999 L 13.115841064453125 0.5429999999999999 L 12.784341064453125 0.09149999999999991 L 12.689841064453125 0.038999999999999924 L 12.689841064453125 0.014999999999999902 L 13.076841064453125 0.014999999999999902 L 13.076841064453125 0.038999999999999924 L 12.967341064453125 0.09299999999999986 L 12.967341064453125 0.09899999999999987 L 13.232841064453124 0.4604999999999999 L 13.472841064453124 0.10049999999999992 L 13.472841064453124 0.09449999999999992 L 13.361841064453126 0.038999999999999924 L 13.361841064453126 0.014999999999999902 L 13.685841064453125 0.014999999999999902 L 13.685841064453125 0.038999999999999924 L 13.588341064453125 0.08849999999999991 L 13.271841064453126 0.5414999999999999 L 13.271841064453126 0.9209999999999999 L 13.406841064453126 0.9809999999999999 L 13.406841064453126 1.005 L 12.980841064453125 1.005" fill="#000000" fill-rule="nonzero"></path></g><g></g></g><defs><clipPath id="SvgjsClipPath42931"><path d=" M -2.544701393125081 -0.5515528924110022 h 2.144701393125081 v 2.1081057848220044 h -2.144701393125081 Z"></path></clipPath><clipPath id="SvgjsClipPath429296025932a-99df-4e77-92b5-6ac7ecfd5c18"><path d=" M -2.544701393125081 -0.5515528924110022 L -0.3999999999999999 -0.5515528924110022 L -0.3999999999999999 1.5565528924110021 L -2.544701393125081 1.5565528924110021 Z"></path></clipPath></defs></svg>